<svg xmlns="http://www.w3.org/2000/svg" xml:space="preserve" width="163.839" height="163.839" style="shape-rendering:geometricPrecision;text-rendering:geometricPrecision;image-rendering:optimizeQuality;fill-rule:evenodd;clip-rule:evenodd" viewBox="0 0 1707 1707"><defs><style>.fil7{fill:#292929}.fil2{fill:#333}.fil5{fill:#ff961e}.fil4{fill:#ffa721}</style></defs><g id="Layer_x0020_1"><path d="M1552 1024c-23 0-48-2-74-5-31-3-63-6-99-6-13 0-23-10-23-23 0-36-3-68-6-99-7-77-14-143 39-196 21-21 49-33 79-33 31 0 59 12 80 33 31 31 36 63 32 94 6-1 13-1 19-1 28 0 53 11 75 33 44 44 44 115 0 159-39 39-86 44-122 44z" style="fill:#ff3131"/><path d="M1468 770c-13 0-23-11-23-24V398c0-13 10-23 23-23 14 0 24 10 24 23v348c0 13-10 24-24 24z" style="fill:#c06000"/><g id="_519001744"><path class="fil2" d="M1354 473c-5 0-10-2-14-5-6-6-8-14-5-22 11-34 11-68 2-98-3-8-1-16 6-22 6-5 15-7 22-3l115 55c8 3 12 11 12 19s-4 15-12 18l-117 56c-3 1-6 2-9 2z"/><path d="M359 1507c-107 0-230-129-264-277-3-9-7-34 21-68 1 0 1-1 2-2l365-344c4-4 10-6 15-5 6 0 11 3 15 7 47 56 121 87 208 87 121 0 231-59 268-144 33-75 6-162-77-252-12-13-27-26-42-38-5-4-7-9-8-15 0-6 2-12 6-16l74-72c5-6 11-11 17-17 68-68 152-151 245-151 46 0 90 21 129 64 40 42 57 95 50 152-8 73-56 144-127 191-70 46-68 74-63 120 1 11 2 23 2 36 2 108-35 203-105 275-77 78-192 122-315 122-43 0-87-5-130-16-8-2-15-4-22-6-16-5-30-8-39-8-6 0-15 0-24 52-10 56-24 106-40 159l-2 6c-39 132-108 160-159 160z" style="fill:#ffe4af"/><path class="fil4" d="M1195 773c0 18-1 36-3 54l-1 1v4c0 2-1 3-1 5l-1 4v1l-1 4v5h-1v5l-1 4-1 1v4l-1 1v3l-1 1-1 4-1 4v2l-1 3v1l-1 3-1 1-1 4v1l-1 4h-1l-1 4v1l-1 3-1 1-1 4-1 4-1 1-1 3-1 1-1 3v1l-1 3-1 1v1l-1 3h-1v1l-1 3-1 1-1 3-1 1-1 3v1h-1l-1 4-1 1-1 3-1 1-2 3v1l-2 3c-1 2-2 3-2 4l-2 4-1 1-2 3v1l-2 2v1l-1 1-2 3-2 4h-1l-2 3v1l-3 3c-1 3-3 5-5 7l-1 2-1 2-1 1-2 3h-1l-2 3v1l-1 1-2 2-1 1-2 2-1 2-2 2-1 1-2 3h-1l-2 3-1 1-2 2-1 2-2 1-1 2-3 3c-1 1-3 2-4 3v1l-3 3h-1c-49 47-113 82-184 100l-4 1c-21 5-42 9-63 11-19 2-37 3-56 3h-3c155-249 313-348 423-387zM721 947c-117 0-254-56-296-211-199-41-239-148-247-187-29-11-104-43-149-85-25-23-34-46-27-68 16-49 105-67 196-80 8-1 15-3 21-4 59-10 122-15 186-15 233 0 429 67 537 184 121 130 113 233 86 296-44 100-170 170-307 170z"/><path class="fil5" d="M185 574c-4-10-6-18-7-25-5-2-11-5-18-8 14-14 77-65 231-94 11-2 22 5 24 16 2 12-5 22-16 25-160 30-212 84-212 85-1 0-1 1-2 1zM432 757c-2-7-5-14-7-21l-24-6 1-1c3-4 83-91 334-139 11-2 22 5 24 16 2 12-5 23-16 25-235 45-311 125-311 126h-1z"/><path d="M1226 437c-37 0-67-30-67-67s30-67 67-67 67 30 67 67-30 67-67 67z" style="fill:#fff"/><path class="fil2" d="M359 1507zm197-301L320 970l-204 192c-28 34-24 59-21 68 34 148 157 277 264 277 51 0 120-28 159-160 14-47 28-92 38-141z"/><path class="fil7" d="m121 1306 173-174c8-8 22-8 30 0s8 22 0 30l-180 179-3 3c-7-12-14-25-20-38zM193 1416l174-174c8-8 21-8 30 0 8 8 8 22 0 30l-174 174c-10-9-20-19-30-30z"/><path class="fil2" d="M1226 405c-19 0-35-16-35-35 0-20 16-35 35-35s35 15 35 35c0 19-16 35-35 35z"/></g></g></svg>