<svg xmlns="http://www.w3.org/2000/svg" xml:space="preserve" width="163.839" height="163.839" style="shape-rendering:geometricPrecision;text-rendering:geometricPrecision;image-rendering:optimizeQuality;fill-rule:evenodd;clip-rule:evenodd" viewBox="0 0 1707 1707"><defs><style>.fil2{fill:#d7d5d7}.fil0{fill:#fbc773}</style></defs><g id="Layer_x0020_1"><path class="fil0" d="M876 1623c-14 0-25-11-25-25v-173c0-14 11-25 25-25s25 11 25 25v173c-1 14-13 25-25 25z"/><path class="fil0" d="M772 1707c-7 0-14-3-19-10-9-11-7-27 4-35l104-83c11-8 26-7 34 4 9 11 7 26-4 35l-104 83c-4 3-10 6-15 6z"/><path class="fil0" d="M979 1707c-6 0-12-2-16-6l-102-83c-11-9-13-24-4-35 8-11 23-12 34-4l103 83c11 8 12 24 4 35-6 5-13 10-19 10zM1139 1586c-13 0-25-11-25-25v-162c0-14 12-25 25-25 14 0 25 11 25 25v162c0 14-11 25-25 25z"/><path class="fil0" d="M1037 1662c-7 0-15-3-20-10-8-11-5-26 6-33l103-76c11-8 26-6 33 5 8 12 5 27-6 34l-102 76c-3 3-9 4-14 4z"/><path class="fil0" d="M1243 1662c-5 0-9-1-13-4l-103-76c-11-9-13-24-6-34 9-11 24-12 34-5l102 76c11 9 13 24 6 33-6 7-13 10-20 10zM349 393c-7 0-15-3-19-10-24-31-136-45-207-45-10 0-20-7-22-16-4-9-2-20 7-26 119-101 216-76 219-75 12 3 21 17 16 29-55 168 92 91 20 136-3 6-9 7-14 7z"/><path d="M984 1486c-32 0-65-7-100-26-32-18-61-43-87-77-56-9-329-69-486-338 0 0 0-1-1-1-4-10-123-260 1-504 0 0 0-1 2-1 1-3 44-78 4-196l-3-8c-3-10-7-21-9-32-7-29-16-75 5-119 1-3 1-4 3-7-4-21-8-58 14-82 7-7 15-14 29-17-2-22 5-43 17-58s30-22 48-19c21 4 39 19 54 47 17-11 33-8 39-6 30 10 47 49 43 99 46 32 83 75 103 105 61 94 91 218 99 305 63 4 229 22 283 108 67-51 256-174 437-108 88 32 121 53 128 82 5 25-11 43-27 57-19 21-27 30-20 50 19 54 45 187-124 281 4 53 10 218-79 310-44 45-104 66-179 62-37 42-109 93-194 93z" style="fill:#efedef"/><path class="fil2" d="M714 1049c-129 0-194-141-211-222-3-12 5-26 19-29 13-3 27 6 29 20 2 8 46 205 188 180 14-3 26 7 27 19 3 14-7 27-19 28-11 3-22 4-33 4z"/><path class="fil2" d="M857 1100c-129 0-193-141-210-221-3-13 6-27 20-30 12-2 26 6 29 20 1 8 45 205 187 180 14-3 26 7 28 20s-7 26-20 27c-14 3-25 4-34 4z"/><path class="fil2" d="M1002 1156c-129 0-194-141-211-222-2-12 6-26 18-29 13-3 27 5 29 18 2 8 46 205 188 180 14-3 26 7 27 20 3 14-6 26-19 27-11 5-22 6-32 6z"/><path d="M492 256c12 0 23 11 23 23 0 13-11 24-23 24-13 0-24-11-24-24 0-12 11-23 24-23z" style="fill:#6a6a6a"/><path class="fil2" d="M1099 1034c4 53 9 218-79 309-34 35-78 56-130 62-10 1-20 1-30 1h-19l-12 12c7 7 14 14 22 20 11 8 22 15 33 22 6 3 11 6 17 8 29 13 56 18 83 18 49 0 94-17 130-40 20-12 37-25 50-39 5-4 10-9 14-14 75 4 135-17 179-62 89-92 83-257 79-310 169-94 143-227 124-281-7-20 1-29 20-50 16-14 32-32 27-57-7-29-40-50-128-82-107-39-216-12-301 27 61 24 85 43 91 68s-11 43-26 56c-19 21-28 31-21 50 20 54 46 188-123 282z"/></g></svg>