<svg xmlns="http://www.w3.org/2000/svg" viewBox="0 0 48 48" style="enable-background:new 0 0 48 48" xml:space="preserve" width="500" height="500"><path style="fill:#ad1456" d="M13.227 36.757c-1.417-.171-2.955-.123-2.955-.123l-1.219-3.08 1.507-6.027-4.926-1.029.898 8.038 1.741 4.056c1.973 1.973 4.816 1.766 4.816 1.766 0-.767-.592-1.358-.592-1.358h2.955c.001 0-.432-2.027-2.225-2.243z"/><path style="fill:#ff8a80" d="M36.218 25.065s3.911 5.606 4.99 7.5c2.393 4.201 3.189 6.775 3.572 6.692.351-.076.611-1.026-1.949-6.786-2.539-5.712-3.712-8.743-3.712-8.743l-2.901 1.337z"/><path style="fill:#ec407a" d="M24.227 38.757c-1.417-.171-4.049-.123-4.049-.123l-3.16-3.481-.78-4.87-5.46-1.955 2.871 7.502c.099.259.265.486.482.659l5.143 4.102c1.973 1.973 4.816 1.766 4.816 1.766 0-.767-.592-1.358-.592-1.358h2.955c0 .001-.433-2.026-2.226-2.242z"/><path style="fill:#8d6e63" d="M3 21.673C3 17.603 6.15 10 15.382 10c8.189 0 12.866 7.223 14.123 7.223s2.352-1.031 4.806-1.031c3.92 0 6.318 3.227 6.318 5.771 0 2.799-2.057 4.548-3.314 4.548-2.574 0-3.498-1.032-4.991-1.032-1.368 0-2.713 4.12-6.552 4.12-4.888 0-7.734 2.326-8.965 5.133-2.659 0-4.766-2.128-4.766-2.128S3 30.361 3 21.673z"/><path style="fill:#795548" d="M20.867 11.129c4.829 2.031 7.695 6.094 8.638 6.094 1.258 0 2.352-1.031 4.806-1.031-2.777 1.767-2.87 5.015-1.987 9.287-1.368 0-2.713 4.12-6.552 4.12-4.888 0-7.734 2.326-8.965 5.133-.267-10.764 13.893-7.05 4.06-23.603z"/><circle style="fill:#212121" cx="37.053" cy="22.383" r="1.032"/></svg>