<svg xmlns="http://www.w3.org/2000/svg" xml:space="preserve" width="682.667" height="682.667" style="shape-rendering:geometricPrecision;text-rendering:geometricPrecision;image-rendering:optimizeQuality;fill-rule:evenodd;clip-rule:evenodd" viewBox="0 0 7111 7111"><defs><linearGradient id="a" gradientUnits="userSpaceOnUse" x1="3555.56" y1="3.035" x2="3555.56" y2="7105.15"><stop offset="0" style="stop-opacity:1;stop-color:#66c"/><stop offset=".51" style="stop-opacity:1;stop-color:fuchsia"/><stop offset="1" style="stop-opacity:1;stop-color:#f60"/></linearGradient></defs><path d="M6927 7105c-55 0-104-38-118-93-173-733-1387-1631-2457-2424-845-625-1574-1165-1789-1598-216-435-253-816-111-1134 199-443 693-636 970-711 129-35 259-53 386-53 483 0 942 252 1367 749 347 405 672 974 965 1690 565 1378 840 2853 907 3440 7 63-36 121-99 132-7 2-14 2-21 2zm-208 0c-531-29-893-281-1111-501-91-91-163-183-220-265 321 213 683 355 1076 371l86 4c66 108 117 218 143 326 5 23 14 45 26 65zM1046 1418H824c-151 0-278-106-320-260 17-9 34-16 44-20 103-40 221-56 331-56h242l-49 134c-25 70-32 137-26 202zm-862-101c-45 0-84-25-105-61 0-1-1-2-1-2 0-1-1-2-1-3-1-1-1-2-2-3 0 0-1-1-1-2s-1-2-1-3-1-2-1-3c-1-1-1-2-1-2-1-1-1-2-1-3l-1-3c0-1-1-2-1-3s-1-2-1-3v-3c-1-1-1-2-1-3s-1-2-1-3v-3c0-1 0-2-1-3v-9c0-1-1-2-1-3V945c0-450 366-815 816-815h589c-7 12-13 25-18 39l-286 793H879c-345 0-574 141-574 234v9c-1 1-1 2-1 3v6c-1 1-1 2-1 3s0 2-1 3v3c0 1-1 2-1 3s0 2-1 3c0 1 0 2-1 3v3c-1 1-1 2-1 3-1 0-1 1-1 2-1 1-1 2-2 3 0 1 0 2-1 3 0 1-1 2-1 2 0 1-1 2-1 3-1 1-1 2-2 3l-1 2c-2 4-4 7-6 10l-2 2c-2 3-5 6-7 9l-2 2-2 2c-3 2-5 4-7 6s-4 4-7 6c-1 1-3 2-4 3s-2 1-3 2c-2 1-5 3-7 4-9 5-18 9-28 11-9 2-19 4-30 4zm6285 5273c-488-19-975-251-1421-678-218-209-382-420-484-566 197 35 393 76 585 135l288 87c211 172 416 351 607 539 134 131 295 301 425 483zm-2635-657 232-785c-224-33-443-67-654-116l-266 901h688zm473-749-221 749h475c55 0 102 36 117 89 14 53-9 109-57 136l-750 433c-18 11-39 16-60 16H2493c-11 0-21-1-31-4L845 6170c-58-16-96-72-88-132s59-105 120-105h2017l284-963c-286-87-555-214-796-419-479-406-780-1063-933-2048 107-4 220-17 324-33 160-25 323-63 477-119 17 238 97 474 205 692 140 282 450 563 689 765 362 309 753 593 1136 876 174 129 348 258 521 388 127 96 255 194 383 294-290-88-585-139-877-182zM2220 1224c165 0 299-134 299-298 0-66-22-127-58-177h164c33 0 60-27 60-61 0-33-27-60-60-60h-809c-33 0-60 27-60 60 0 34 27 61 60 61h164c-36 50-58 111-58 177 0 164 134 298 298 298zm0-475c98 0 177 79 177 177 0 97-79 177-177 177-97 0-176-80-176-177 0-98 79-177 176-177zm-789 1632c-17-120-31-244-44-374-10-97-60-195-109-289-75-145-153-296-93-462l378-1047c12-31 35-56 66-70 402-172 771-181 1095-25 418 202 654 628 766 892-33 7-66 14-99 23-426 116-860 359-1048 778-62 137-91 277-95 418-172 71-357 115-539 138-89 11-180 17-269 18h-9zm3775 2051c7 0 14-1 21-3 31-12 48-46 37-78-70-196-146-390-230-581-239-539-687-1380-1316-1524-126-29-252-28-379-1-32 7-53 40-46 72 7 33 39 54 72 47 91-20 184-23 276-8 751 123 1280 1395 1508 2036 9 24 32 40 57 40zm811 712c5 0 11 0 16-2 32-9 51-43 42-75-91-320-193-637-308-950-110-300-233-598-372-886-118-242-248-480-399-704-311-463-805-1010-1427-841-32 8-51 42-43 74 9 32 43 52 75 43 559-152 1019 382 1295 792 147 220 276 456 391 695 137 282 258 574 366 869 114 310 215 624 305 941 8 26 31 44 59 44z" style="fill:url(#a)"/></svg>