<svg id="Layer_1" data-name="Layer 1" xmlns="http://www.w3.org/2000/svg" width="100" height="100"><defs><style>.cls-3{fill:#22b5ec}</style></defs><path d="M68.55 71.31a2.61 2.61 0 0 1-2.61 2.6H47.5a2.61 2.61 0 0 1 0-5.21h2.28v-5.8h4.88v5.8H60v-5.81h4.88v5.81h1.06a2.61 2.61 0 0 1 2.61 2.61z" style="fill:#fdad12"/><path d="M29.64 31.35a17.67 17.67 0 0 0-.64 5.33v4h-8.82A4.66 4.66 0 0 1 15.51 36a4.61 4.61 0 0 1 4.56-4.65h9.57z" style="fill:#f87902"/><path class="cls-3" d="M41.3 26.09c-5.39 0-10 0-11.66 5.26a17.67 17.67 0 0 0-.64 5.33v13.9A12.34 12.34 0 0 0 41.3 62.9h40a3.21 3.21 0 0 0 3.18-3.21c0-4.63-30.71-33.64-43.18-33.6zm-8.06 8A5.11 5.11 0 0 1 38.31 29a5.08 5.08 0 1 1-5.09 5.06zM70.1 53.18a18.13 18.13 0 0 1-2.18 2.12 19.23 19.23 0 0 1-4.26 2.75 20.54 20.54 0 0 1-4.55 1.55 20.78 20.78 0 0 1-5 .4 20.39 20.39 0 0 1-11-3.78 10.17 10.17 0 0 1-4.28-8.28 8.47 8.47 0 0 1 .1-1.32A10.39 10.39 0 0 1 40.71 42a10.15 10.15 0 0 1 14.19-2.3l2.58 1.84L62 44.77l3.36 2.41 1.1.78 3.32 2.37a2 2 0 0 1 .49.64 2 2 0 0 1 .26 1 2 2 0 0 1-.43 1.21z"/><path class="cls-3" d="M70.49 52a2 2 0 0 1-.39 1.21 18.13 18.13 0 0 1-2.18 2.12 19.23 19.23 0 0 1-4.26 2.75 20.54 20.54 0 0 1-4.55 1.55 20.78 20.78 0 0 1-5 .4 20.39 20.39 0 0 1-11-3.78 10.17 10.17 0 0 1-4.28-8.28 8.47 8.47 0 0 1 .1-1.32A10.39 10.39 0 0 1 40.71 42a10.15 10.15 0 0 1 14.19-2.3l2.58 1.84L62 44.77l3.36 2.41 1.1.78 3.32 2.37a2 2 0 0 1 .49.64 2 2 0 0 1 .22 1.03z"/><path d="M43.39 34.1a5 5 0 0 1-1.08 3.13 5.08 5.08 0 0 1-9.07-3.15A5.11 5.11 0 0 1 38.31 29a5.06 5.06 0 0 1 5.08 5.1z" style="fill:#fff"/><path d="M70.49 52a2 2 0 0 1-.39 1.21 18.13 18.13 0 0 1-2.18 2.12 19.23 19.23 0 0 1-4.26 2.75 20.54 20.54 0 0 1-4.55 1.55 20.78 20.78 0 0 1-5 .4 20.39 20.39 0 0 1-11-3.78 10.17 10.17 0 0 1-4.28-8.28 8.47 8.47 0 0 1 .1-1.32A10.39 10.39 0 0 1 40.71 42a10.15 10.15 0 0 1 14.19-2.3l2.58 1.84L62 44.77l3.36 2.41 1.1.78 3.32 2.37a2 2 0 0 1 .49.64 2 2 0 0 1 .22 1.03z" style="fill:#1aaeab"/></svg>