<svg xmlns="http://www.w3.org/2000/svg" xml:space="preserve" width="512" height="512" style="shape-rendering:geometricPrecision;text-rendering:geometricPrecision;image-rendering:optimizeQuality;fill-rule:evenodd;clip-rule:evenodd"><defs><style>.fil1{fill:#ff4500}.fil2{fill:#ffd300}</style></defs><g id="Layer_x0020_1"><path d="M351.005 117c-33.143 0-33.144-48 0-48 31.715 0 31.715 48 0 48zm-236.3 296.618-7.698-.044v44.424h34c9.232 0 9.234 14 0 14h-34v33c0 9.233-14.001 9.233-14.001 0v-33H58.007c-9.232 0-9.232-14.001 0-14.001h34.999v-44.504l-85-.495c-5.996-.018-9.23-7.088-5.3-11.6l161.9-182.899c1.086-1.267 10.776-12.449 26.4-21.9v-75.6c0-66.7 54.3-121 121-121 63.332 0 115.48 48.958 120.584 111h6.416c39.701 0 72 32.3 72 72 0 3.9-3.1 7-7 7h-92.672a122.017 122.017 0 0 1-10.998 13.585c7.609 87.678-14.755 205.412-121.33 210.256v44.158h35c9.232 0 9.234 14 0 14h-35v33c0 9.232-14 9.232-14 0v-33h-34.998c-9.233 0-9.233-14.002 0-14.002h34.998v-43.998h-82.884c-.604.034-1.207.072-1.817.1-.74-.751-61.95.765-65.6-.48zm90.301-224.143c23.114-9.565 46.752-8.458 68.898 3.325 9.656 4.793 26.133 14.633 37.363 35.2 28.954 0 58.004-11.89 76.327-31.353 2.492-2.815 11.305-12.115 12.548-15.051a6.938 6.938 0 0 1 2.847-4.35c10.045-16.188 15.891-35.24 16.008-55.623-1.479-5.41-1.345-1.569-.182-6.921C415.543 58.622 368.891 14 312.005 14c-58.999 0-106.999 48-106.999 107v68.475zm112.255 52.412c16.903 51.673-16.645 128.185-79.142 158.11h33.887c105.644 0 118.206-117.404 115.091-184.202-19.365 15.378-43.526 24.961-69.835 26.091zM23.507 399.099l156.421.898c41.091-2.004 74.283-19.104 98.578-50.699 39.014-50.773 42.272-118.55-10.9-144.199-24.924-13.352-47.666-8.166-64.344.548a6.956 6.956 0 0 1-4.052 2.25c-6.628 2.422-23.5 18.373-24.003 19.702l-151.7 171.5zm409.423-274.1c-.598 18.309-5.276 35.606-13.17 51h76.845c-3.5-28.699-28-51-57.6-51h-6.075zm-81.925-42c-14.697 0-14.697 20.001 0 20.001 13.203 0 13.203-20 0-20z" style="fill:#52050d"/><path class="fil1" d="M351.005 117c-33.143 0-33.144-48 0-48 31.715 0 31.715 48 0 48zm-145.999 72.475c23.113-9.565 46.752-8.458 68.897 3.325 9.656 4.793 26.134 14.633 37.364 35.2 28.953 0 58.004-11.89 76.326-31.353 2.492-2.815 11.306-12.115 12.548-15.051a6.938 6.938 0 0 1 2.848-4.35c10.044-16.188 15.89-35.24 16.007-55.623-1.478-5.41-1.345-1.569-.181-6.921C415.543 58.622 368.89 14 312.005 14c-58.999 0-107 48-107 107v68.475z"/><path class="fil2" d="M351.005 83c-14.698 0-14.698 20 0 20 13.202 0 13.202-20 0-20zM432.93 125c-.599 18.308-5.276 35.606-13.17 50.999l76.845.001c-3.5-28.7-28-51-57.6-51h-6.075z"/><path class="fil1" d="M272.005 399.998c105.644 0 118.206-117.405 115.091-184.203-19.365 15.378-43.526 24.962-69.835 26.092 16.902 51.673-16.646 128.185-79.143 158.11h33.887z"/><path class="fil1" d="M278.505 349.299c39.014-50.773 42.272-118.551-10.9-144.199-24.924-13.352-47.666-8.166-64.344.548a6.956 6.956 0 0 1-4.052 2.25c-6.628 2.421-23.5 18.372-24.003 19.702l-151.7 171.499 156.422.899c41.09-2.004 74.282-19.105 98.577-50.7z"/></g></svg>