<svg xmlns="http://www.w3.org/2000/svg" xml:space="preserve" width="163.839" height="163.839" style="shape-rendering:geometricPrecision;text-rendering:geometricPrecision;image-rendering:optimizeQuality;fill-rule:evenodd;clip-rule:evenodd" viewBox="0 0 1707 1707" xmlns:xlink="http://www.w3.org/1999/xlink"><defs><linearGradient id="f" gradientUnits="userSpaceOnUse" x1="1215.98" y1="426.138" x2="1215.98" y2="1228.41"><stop offset="0" style="stop-opacity:1;stop-color:red"/><stop offset="1" style="stop-opacity:1;stop-color:#900"/></linearGradient><linearGradient id="a" gradientUnits="userSpaceOnUse" x1="654.756" y1="1582.03" x2="654.756" y2="1275.67"><stop offset="0" style="stop-opacity:1;stop-color:#378b4e"/><stop offset="1" style="stop-opacity:1;stop-color:#9c3"/></linearGradient><linearGradient id="c" gradientUnits="userSpaceOnUse" x1="487.543" y1="124.634" x2="487.543" y2="965.512"><stop offset="0" style="stop-opacity:1;stop-color:#f91"/><stop offset="1" style="stop-opacity:1;stop-color:#f60"/></linearGradient><linearGradient id="e" gradientUnits="userSpaceOnUse" xlink:href="#a" x1="692.799" y1="1275.67" x2="692.799" y2="976.807"/><linearGradient id="b" gradientUnits="userSpaceOnUse" x1="1161.77" y1="533.106" x2="1161.77" y2="581.941"><stop offset="0" style="stop-opacity:1;stop-color:#369"/><stop offset="1" style="stop-opacity:1;stop-color:#0cf"/></linearGradient><linearGradient id="d" gradientUnits="userSpaceOnUse" xlink:href="#b" x1="1227.14" y1="322.209" x2="1227.14" y2="868.358"/></defs><path d="M828 949c1-3 43 26 53 13 25-33 65-84 67-91 24-114 27-285 27-285L855 125c-21 9-75 289-75 289-118-164-238-289-238-289 99 249 80 416 337 655 0 0-175-129-282-183-166-83-348-146-536-109-245 47 315 326 486 292 0 0 250-38 281 169z" style="fill:url(#c)"/><path d="M1511 347c6-5 8-13 3-19-4-6-13-8-19-3-1 1-506 374-557 526-2 7 2 14 9 17 7 2 14-2 17-9 48-143 546-511 547-512z" style="fill:url(#d);fill-rule:nonzero"/><path d="M1095 543c-5-5-14-5-19 0-5 6-5 14 0 20 0 0 46 45 167-4 7-3 10-11 7-17-2-7-10-11-17-8-105 43-138 9-138 9z" style="fill:url(#b);fill-rule:nonzero"/><path style="fill:url(#a)" d="M604 1276h102v306H604z"/><path d="M604 1276c39-188 156-299 156-299l22 75-57 176-19 48H604z" style="fill:url(#e)"/><path d="M1707 426s-720 706-982 802c0 0 11-166 41-222 0 0 170-204 941-580z" style="fill:url(#f)"/></svg>