<svg height="512" viewBox="0 0 502 502" width="512" xmlns="http://www.w3.org/2000/svg" xmlns:xlink="http://www.w3.org/1999/xlink"><linearGradient id="a"><stop offset="0" stop-color="#7ecc5c"/><stop offset="1" stop-color="#b8e2a5"/></linearGradient><linearGradient id="d" gradientUnits="userSpaceOnUse" x1="343.802" x2="501.497" xlink:href="#a" y1="310.208" y2="310.208"/><linearGradient id="e" gradientUnits="userSpaceOnUse" x1=".503" x2="158.198" y1="310.208" y2="310.208"><stop offset="0" stop-color="#b8e2a5"/><stop offset="1" stop-color="#7ecc5c"/></linearGradient><linearGradient id="f" gradientUnits="userSpaceOnUse" x1="251" x2="251" xlink:href="#a" y1="473.056" y2="305.356"/><linearGradient id="b"><stop offset="0" stop-color="#f3c757"/><stop offset="1" stop-color="#f9e09d"/></linearGradient><linearGradient id="g" gradientUnits="userSpaceOnUse" x1="251" x2="251" xlink:href="#b" y1="353.168" y2="0"/><linearGradient id="h" gradientUnits="userSpaceOnUse" x1="251" x2="251" y1="305.008" y2="48.161"><stop offset="0" stop-color="#f7496e"/><stop offset="1" stop-color="#fd869c"/></linearGradient><linearGradient id="i" gradientUnits="userSpaceOnUse" x1="195.588" x2="195.588" xlink:href="#b" y1="502" y2="430.331"/><linearGradient id="j" gradientUnits="userSpaceOnUse" x1="306.412" x2="306.412" xlink:href="#b" y1="502" y2="430.331"/><linearGradient id="c"><stop offset="0" stop-color="#f9e09d"/><stop offset="1" stop-color="#f3c757"/></linearGradient><linearGradient id="k" gradientUnits="userSpaceOnUse" x1="251" x2="251" xlink:href="#c" y1="249.731" y2="205.933"/><linearGradient id="l" gradientUnits="userSpaceOnUse" x1="251" x2="251" xlink:href="#c" y1="217.674" y2="150.329"/><path d="M450.326 199.588c30.849 11.51 51.171 33.594 51.171 75.337 0 68.147-53.702 129.169-157.695 145.903z" fill="url(#d)"/><path d="M51.674 199.588C20.825 211.098.503 233.182.503 274.925c0 68.147 53.702 129.169 157.695 145.903z" fill="url(#e)"/><path d="M425.861 305.356c-33.994 86.569-99.563 167.7-174.861 167.7s-140.867-81.131-174.861-167.7z" fill="url(#f)"/><path d="M450.618 188.904c0 34.946-8.98 76.283-24.757 116.452-51.537 30.43-111.24 47.812-174.861 47.812s-123.324-17.382-174.861-47.812c-15.777-40.17-24.757-81.506-24.757-116.452C51.382 78.659 140.755 0 251 0s199.618 78.659 199.618 188.904z" fill="url(#g)"/><path d="M251 48.161c-83.51 0-151.449 57.236-151.449 140.746 0 10.867 1.086 22.56 3.144 34.726 5.371 31.747 28.055 57.804 58.741 67.554 28.651 9.103 58.763 13.822 89.564 13.822 30.802 0 60.913-4.719 89.564-13.822 30.686-9.75 53.37-35.807 58.741-67.553 2.058-12.166 3.145-23.859 3.145-34.726-.001-83.511-67.941-140.747-151.45-140.747z" fill="url(#h)"/><path d="M249.043 422.642c-8.49-8.56-19.012-15.099-30.775-18.823-11.225-3.553-22.68 4.778-22.68 16.552a17.373 17.373 0 0 0 8.594 14.992l30.969 18.137 6.631-2.039c12.47-3.833 16.448-19.556 7.261-28.819z" fill="#6dc647"/><path d="M195.588 430.331c-25.054 0-45.365 20.311-45.365 45.365C150.223 490.223 162 502 176.527 502h38.122c14.527 0 26.304-11.777 26.304-26.304 0-25.054-20.311-45.365-45.365-45.365z" fill="url(#i)"/><path d="M306.412 430.331c25.054 0 45.365 20.311 45.365 45.365C351.777 490.223 340 502 325.473 502h-38.122c-14.527 0-26.304-11.777-26.304-26.304 0-25.054 20.311-45.365 45.365-45.365z" fill="url(#j)"/><ellipse cx="149.584" cy="203.822" fill="#ffaecf" rx="17.236" ry="13.851"/><ellipse cx="352.416" cy="203.822" fill="#ffaecf" rx="17.236" ry="13.851"/><circle cx="179.133" cy="169.645" fill="#fff" r="34.178"/><circle cx="322.867" cy="169.645" fill="#fff" r="34.178"/><g fill="#383842"><circle cx="179.133" cy="169.645" r="20.37"/><circle cx="322.867" cy="169.645" r="20.37"/></g><path d="m294.873 205.933-.139 2.408c-.642 11.602-5.758 21.953-13.636 29.402-7.856 7.439-18.474 11.988-30.098 11.988-23.248 0-42.449-18.174-43.734-41.39l-.139-2.408z" fill="url(#k)"/><path d="m295.355 197.199-.482 8.734c-12.491 7.407-27.593 11.742-43.873 11.742s-31.382-4.335-43.873-11.742l-.482-8.734c-1.413-25.453 18.859-46.87 44.355-46.87s45.768 21.417 44.355 46.87z" fill="url(#l)"/><path d="M86.935 330.391c-2.486-5.278-7.76-8.677-13.595-8.677-10.995 0-18.252 11.447-13.563 21.392 9.991 21.192 21.511 41.219 34.096 59.335 15.217 6.682 32.267 12.086 51.119 15.964-22.893-24.547-42.664-55.328-58.057-88.014z" fill="#6dc647"/></svg>