<svg width="512" height="512" fill="none" xmlns="http://www.w3.org/2000/svg"><path d="M335.292 488h-24a8.004 8.004 0 0 1-7.761-6.06l-24-96a7.99 7.99 0 0 1 .901-6.057 8 8 0 0 1 8.038-3.796 8 8 0 0 1 6.584 5.973L317.539 472h17.753a8 8 0 0 1 0 16zM384 488h-24a7.998 7.998 0 0 1-7.761-6.06L326.8 380.183a8 8 0 0 1 15.523-3.881L366.246 472H384a8 8 0 1 1 0 16z" fill="#A86E09"/><path d="M139.646 280H24v4.686A27.314 27.314 0 0 0 51.314 312h128.332l-40-32z" fill="#D78E0C"/><path d="M179.646 312H48v4.686A27.316 27.316 0 0 0 75.314 344h136.332l-32-32z" fill="#C7830B"/><path d="M211.646 344H72v4.686A27.316 27.316 0 0 0 99.314 376h152.332l-40-32z" fill="#A86E09"/><path d="m355.363 212.479-4.07-4.479v-45.344a42.653 42.653 0 0 1 12.494-30.162A42.653 42.653 0 0 1 393.949 120h3.675a42.652 42.652 0 0 1 30.162 12.494l18.707 18.706s.8-20.477.8-23.2a64 64 0 0 0-128 0v.177a21.285 21.285 0 0 1-15.947 20.771 210.741 210.741 0 0 0-7.836 2.187 215.86 215.86 0 0 0-96.155 59.875L135.293 280l69.332 68.392a135.488 135.488 0 0 0 98.617 38.971l1.816-.046A125.77 125.77 0 0 0 402.62 336.9l.962-1.285A195.543 195.543 0 0 0 440.412 248h-4.766a108.486 108.486 0 0 1-80.283-35.521z" fill="#D5515E"/><path d="M243.65 248a8 8 0 0 1-8 8h-78.36l9.52-10.39c1.75-1.91 3.537-3.78 5.36-5.61h63.48a8 8 0 0 1 8 8zM272.48 216a8 8 0 0 1-8 8h-74.23a189.453 189.453 0 0 1 24.2-16h50.03a8 8 0 0 1 8 8z" fill="#C34A56"/><path d="m446.493 151.2-18.707-18.706A42.662 42.662 0 0 0 397.624 120h-3.675a42.653 42.653 0 0 0-30.162 12.494 42.653 42.653 0 0 0-12.494 30.162V208l4.07 4.479A108.478 108.478 0 0 0 435.646 248h4.766a197.356 197.356 0 0 0 2.009-19.436l4.072-77.364z" fill="#DCDBD6"/><path d="m483.84 147.95-3.66.92a74.313 74.313 0 0 0-23.28 10.3l-11.22 7.48.81-15.45s.8-20.48.8-23.2a65.12 65.12 0 0 0-.33-6.58l37.71 16.16a5.491 5.491 0 0 1 2.026 8.593 5.49 5.49 0 0 1-2.856 1.777z" fill="#F7BA61"/><path d="M391.293 136c8.837 0 16-7.163 16-16s-7.163-16-16-16-16 7.163-16 16 7.163 16 16 16z" fill="#E6E5E0"/><path d="M391.293 127.129a7.13 7.13 0 1 0 0-14.259 7.13 7.13 0 0 0 0 14.259z" fill="#6A6C65"/><path d="M387.646 288a8 8 0 0 1-8-8v-8a8 8 0 1 1 16 0v8a8 8 0 0 1-8 8zM355.646 296a8 8 0 0 1-8-8v-8a8 8 0 1 1 16 0v8a8 8 0 0 1-8 8zM379.646 328a8 8 0 0 1-8-8v-8a8 8 0 1 1 16 0v8a8 8 0 0 1-8 8z" fill="#A8404A"/><path d="M232 320h-16a8 8 0 1 1 0-16h16a8 8 0 1 1 0 16zM264 344h-16a8 8 0 1 1 0-16h16a8 8 0 1 1 0 16z" fill="#C34A56"/><path d="M307.646 184a119.57 119.57 0 0 1-43.02 91.85l-5.333 4.15h25.34a74.002 74.002 0 0 0 56.848-26.626l.66-.792a73.999 73.999 0 0 0 17.152-47.374V184h-51.647z" fill="#D78E0C"/><path d="M307.646 184h-.772a189.993 189.993 0 0 0-140.059 61.612L135.293 280h124l5.333-4.15a119.563 119.563 0 0 0 43.02-91.85z" fill="#C34A56"/><path d="M243.65 248a8 8 0 0 1-8 8h-78.36l9.52-10.39c1.75-1.91 3.537-3.78 5.36-5.61h63.48a8 8 0 0 1 8 8zM272.48 216a8 8 0 0 1-8 8h-74.23a189.453 189.453 0 0 1 24.2-16h50.03a8 8 0 0 1 8 8z" fill="#A8404A"/></svg>