<svg xmlns="http://www.w3.org/2000/svg" xml:space="preserve" width="682.667" height="682.667" style="shape-rendering:geometricPrecision;text-rendering:geometricPrecision;image-rendering:optimizeQuality;fill-rule:evenodd;clip-rule:evenodd" viewBox="0 0 7111 7111"><defs><style>.fil1{fill:#454545}.fil0{fill:#58535a}</style></defs><g id="Layer_x0020_1"><path class="fil0" d="M2969 6178c-11 0-23-2-34-5-64-19-100-86-82-150l345-1168c19-64 86-100 150-81s101 86 82 150l-345 1167c-15 53-64 87-116 87zM3911 6178c-12 0-23-2-35-5-64-19-100-86-81-150l297-1006c18-64 86-100 150-81s100 86 81 150l-297 1005c-15 53-63 87-115 87z"/><path class="fil0" d="M5585 5513c-17 0-33-3-49-10-457-202-940-273-1406-341-650-95-1264-185-1764-608-555-472-872-1281-995-2547C1258 857 169 488 158 485c-49-16-82-61-83-113-1-51 31-98 79-115C880-10 1487 88 1650 123c388-158 744-162 1058-10 618 297 839 1083 848 1116 16 58 1693 3339 1985 4014 31 12 62 26 92 39 61 27 89 98 62 159-20 46-64 72-110 72z"/><path class="fil1" d="M1342 82c146 10 253 29 308 41 31-13 62-25 93-36 219 170 431 340 523 432 47 47 47 124 0 171-23 24-54 35-85 35s-62-11-85-35c-115-114-476-396-754-608zM1596 3254c-32-108-61-222-87-341 234 194 726 500 871 596 56 37 71 112 34 167-23 35-62 54-101 54-23 0-46-6-66-20-131-86-414-284-651-456z"/><circle class="fil1" cx="2171" cy="886" r="403"/><circle cx="2171" cy="886" r="189" style="fill:#1a1a1a"/><path d="M1992 949c21 59 70 104 130 120 26-16 43-45 43-78 0-50-41-91-91-91-36 0-67 20-82 49z" style="fill:#fff"/><path d="M6915 7110c-55 0-104-38-117-93-174-734-1389-1633-2460-2427-845-625-1575-1166-1791-1600s-253-816-110-1134c199-443 694-636 971-711 129-35 259-53 386-53 483 0 943 252 1368 749 347 405 672 974 966 1692 565 1379 841 2855 907 3442 8 64-36 122-99 133-7 1-14 2-21 2z" style="fill:#4d4d4d"/><path class="fil1" d="M5667 2573c77 136 153 281 228 435-22 442-94 1022-309 1295-24 30-60 45-95 45-26 0-53-8-75-26-52-41-61-117-20-169 226-286 286-1216 271-1580zM4442 1250c114 56 225 128 335 215 146 393 304 943 223 1287-13 56-62 93-117 93-9 0-19-1-28-3-65-15-105-80-90-145 80-341-166-1110-323-1447zM3815 3532c-26 0-53-9-75-27-192-153-465-379-628-573-289-343-288-612-236-778 75-242 311-428 664-524 64-17 130 21 148 85 17 65-21 131-85 148-270 74-447 203-497 363-48 155 18 345 191 550 167 198 477 447 594 541 52 41 60 117 18 169-23 30-58 46-94 46z"/><path d="M5437 6611H1749c-66 0-120-54-120-121v-433c0-67 54-121 120-121h3688c67 0 121 54 121 121v433c0 67-54 121-121 121z" style="fill:#7dd63e"/></g></svg>