<svg xmlns="http://www.w3.org/2000/svg" viewBox="0 0 512 512" xml:space="preserve"><path fill="#2A4F5F" d="M336 480a8 8 0 0 1-8-8v-80a8 8 0 0 1 16 0v80a8 8 0 0 1-8 8zM288 480a8 8 0 0 1-8-8v-80a8 8 0 0 1 16 0v80a8 8 0 0 1-8 8z"/><path fill="#D1B054" d="M248 216 46.849 151.344A32.923 32.923 0 0 1 24 120l248-32-24 128z"/><path fill="#F0C960" d="M216 96H24c0-17.673 14.327-32 32-32h160v32z"/><path fill="#C2ECFF" d="M338.607 400.849c-42.574 14.191-89.44-.726-115.979-36.915-26.569-36.23-30.019-84.482-8.877-124.124a741.406 741.406 0 0 0 49.176-114.44l.598-1.793c1.79-5.369-2.207-10.914-7.867-10.914H243.75c-22.15 0-40.163-17.849-40.367-39.998a40.369 40.369 0 0 1 20.762-35.659l7.027-3.904c26.442-14.69 59.232-11.375 82.199 8.311a35.57 35.57 0 0 1 10.802 37.616l-25.837 82.679c-4.089 13.084 2.277 27.154 14.803 32.721l98.024 74.999-39.815 98.678a51.764 51.764 0 0 1-32.741 32.743z"/><path fill="#5199B9" d="M488.42 404.25c-2.05 5.39-6.98 9.24-12.6 10.07-3.24.49-6.72-.03-9.99-1.85l-21.93-12.19-21.19-11.78-30.45-16.92-19.35-10.76-87.59-48.68c-34.84-19.37-46.26-64.02-25.01-97.73 16.68-26.46 48.99-38.49 78.92-29.41 6.28 1.91 12.41 4.09 18.4 6.55a203.7 203.7 0 0 1 14.71 6.71c5.77 2.9 11.38 6.07 16.81 9.48 4.78 2.99 9.43 6.18 13.93 9.53 7.42 5.56 14.45 11.58 21.04 18.05 4.65 4.54 9.07 9.31 13.26 14.28.27.31.54.62.8.94 25.38 30.39 42.08 68.04 46.84 109.05l4.31 37.16c.31 2.7-.04 5.23-.91 7.5z"/><path fill="#D35B57" d="M240.02 64c-4.418 0-8.005-3.582-8.005-8s3.577-8 7.995-8h.01a8 8 0 1 1 0 16z"/><path fill="#D1B054" d="M300 488h-84c0-13.255 10.745-24 24-24h60c6.627 0 12 5.373 12 12s-5.373 12-12 12z"/><path fill="#F0C960" d="M348 488h-84c0-13.255 10.745-24 24-24h60c6.627 0 12 5.373 12 12s-5.373 12-12 12z"/><path fill="#2A4F5F" d="M488.42 404.25c-2.05 5.39-6.98 9.24-12.6 10.07l-17.91-29.3c-26.6-43.52-39.11-93.45-36.18-144.39.11-2.07 1-3.95 2.39-5.31 4.65 4.54 9.07 9.31 13.26 14.28-1.06 44.87 10.69 88.64 34.19 127.08l16.85 27.57z"/><path fill="#2A4F5F" d="M444.91 396.39c0 1.41-.36 2.74-1.01 3.89l-21.19-11.78-2.13-3.48c-31.9-52.21-43.48-114.12-32.61-174.32.19-1.09.6-2.09 1.18-2.96 4.78 2.99 9.43 6.18 13.93 9.53-9.05 55.16 1.96 111.63 31.16 159.41l9.5 15.54c.76 1.25 1.17 2.7 1.17 4.17z"/><path fill="#2A4F5F" d="m392.26 371.58-19.35-10.76c-24.63-52.46-30.23-111.7-15.69-168.1.11-.41.24-.8.41-1.17a203.7 203.7 0 0 1 14.71 6.71c-14.03 55.91-6.94 114.69 20 165.69 1.32 2.48 1.19 5.34-.08 7.63z"/></svg>