<svg xmlns="http://www.w3.org/2000/svg" width="500" height="500" viewBox="0 0 48 48" xml:space="preserve"><g fill="#DD2C00"><path stroke="#DD2C00" stroke-width="2" stroke-linecap="round" stroke-linejoin="round" d="m23 30 1 7.938"/><path d="M31 38.938c-1 0-2 1-2 2l-4.5-1c-.5 0-1.5-.672-1.5-1.5a1.5 1.5 0 0 1 1.5-1.5H30c-1 1 1 2 1 2z"/></g><path fill="none" stroke="#FF3D00" stroke-width="2" stroke-linecap="round" stroke-linejoin="round" d="m21 32 1 7.938"/><path fill="#FF3D00" d="M29 41c-1 0-2 1-2 2l-4.5-1c-.5 0-1.5-.672-1.5-1.5a1.5 1.5 0 0 1 1.5-1.5H28c-1 1 1 2 1 2z"/><path fill="#78909C" d="M6.192 32.029A34.006 34.006 0 0 0 5 36c22 0 22.063-11.71 22.039-15.141-.052 2.825-1.76 11.606-20.847 11.17z"/><path fill="#FF5722" d="M33 7.082s6-1 8 4c-3 4-8 2.84-8 2.84v-6.84z"/><g fill="#455A64"><path d="m35 20-2-6.078L23 10v6c-.954.954-12.83 2.83-17.391 17.771.185-.6.377-1.183.583-1.742 19.087.436 20.795-8.346 20.847-11.17.003.381-.014.881-.069 1.457C27.104 20.922 27 20 27 20h8z"/><circle cx="29" cy="10" r="6"/></g><g fill="#CFD8DC"><path d="M35 20h-8s.036.333.038.894l.001-.035C27.063 24.29 27 36 5 36c39.862 3.322 30-16 30-16zM35 10c0 2.21-1.79 4-4 4s-7-4-7-4 4.79-4 7-4 4 1.791 4 4z"/></g><path fill="#263238" d="M31 9a1 1 0 1 1-2 0c0-.553 1-2 1-2s1 1.447 1 2z"/></svg>