<svg xmlns="http://www.w3.org/2000/svg" viewBox="0 0 512 512" style="enable-background:new 0 0 512 512" xml:space="preserve"><path style="fill:#3a82d0" d="m251.522 368.141-140.71 140.71c-4.199 4.199-11.007 4.199-15.206 0l-67.968-67.968c-5.078-5.078-3.846-13.612 2.462-17.046l179.431-97.687 41.991 41.991z"/><path style="fill:#0d73ce" d="M251.524 368.146 110.811 508.848c-4.193 4.203-11.002 4.203-15.205 0l-8.726-8.715 148.315-148.315 16.329 16.328z"/><path style="fill:#ffcf64" d="M478.292 54.252c6.52 0 10.927 6.556 8.582 12.64-5.077 13.171-17.855 22.516-32.816 22.516-19.417 0-35.157-15.74-35.157-35.157h59.391z"/><path style="fill:#5f9eeb" d="M383.356 355.907c-59.4 59.4-155.712 59.4-215.112 0-15.082-15.082-26.321-32.533-33.749-51.169l162.14-162.13 35.562-35.562c18.626 7.417 36.087 18.667 51.159 33.738 8.653 8.664 16.05 18.1 22.19 28.103 35.953 58.598 28.557 136.273-22.19 187.02z"/><path style="fill:#3a82d0" d="M405.546 168.888c-11.476 4.862-23.931 7.407-36.777 7.407-.742 0-1.473-.01-2.215-.021-24.075-.556-46.832-10.271-64.088-27.362a95.695 95.695 0 0 1-5.831-6.305l35.562-35.562c18.626 7.417 36.087 18.667 51.159 33.738 8.653 8.665 16.05 18.102 22.19 28.105z"/><path style="fill:#3a82d0" d="M383.356 355.907c-33.481 33.481-78.685 48.089-122.396 43.824 33.852-3.297 66.797-17.905 92.716-43.824 59.4-59.4 59.4-155.712 0-215.122-9.55-9.539-20.047-17.554-31.194-24.024l9.715-9.715c18.626 7.417 36.087 18.667 51.159 33.738 59.411 59.411 59.411 155.723 0 215.123z"/><path style="fill:#a9d2f7" d="M298.658 71.83c70.539 70.539 70.539 184.905 0 255.444-67.804 67.804-176.103 70.433-247.047 7.887-4.679-4.125-4.967-11.317-.556-15.728L298.658 71.83z"/><path style="fill:#f1dd47" d="M298.658 71.83c38.673 38.673 38.673 101.376 0 140.049s-101.376 38.673-140.049 0L298.658 71.83z"/><path style="fill:#efc40f" d="M298.654 211.877c-28 28-68.6 35.727-103.554 23.169 29.731 4.172 60.987-5.182 83.857-28.041 34.48-34.491 38.22-88.07 11.219-126.692l8.478-8.478c38.673 38.672 38.673 101.369 0 140.042z"/><path style="fill:#5f9eeb" d="m371.771.076.002-.076h-93.221c-7.079 0-12.205 6.717-10.387 13.558 3.12 11.74 10.196 21.867 19.712 28.875 3.764 2.772 5.175 7.75 3.613 12.156-3.322 9.368-4.99 19.518-4.646 30.103 1.404 43.209 36.776 78.228 79.996 79.219 46.149 1.058 83.893-36.035 83.893-81.945-.001-44.26-35.088-80.306-78.962-81.89z"/><path style="fill:#0d73ce" d="M108.515 336.606a7.71 7.71 0 0 1-4.73-1.617l-6.679-5.172a7.727 7.727 0 0 1 9.461-12.219l1.984 1.536 2.437-1.858a7.725 7.725 0 0 1 10.829 1.458 7.726 7.726 0 0 1-1.458 10.829l-7.157 5.459a7.72 7.72 0 0 1-4.687 1.584zM158.369 336.606a7.709 7.709 0 0 1-4.73-1.617l-6.679-5.172a7.728 7.728 0 0 1 9.461-12.219l1.984 1.536 2.436-1.858a7.725 7.725 0 0 1 10.829 1.458 7.726 7.726 0 0 1-1.458 10.829l-7.157 5.459a7.713 7.713 0 0 1-4.686 1.584zM158.369 292.609c-1.67 0-3.339-.54-4.731-1.618l-6.679-5.172a7.727 7.727 0 0 1 9.462-12.218l1.983 1.536 2.436-1.858a7.725 7.725 0 0 1 10.829 1.458 7.726 7.726 0 0 1-1.458 10.829l-7.157 5.459a7.708 7.708 0 0 1-4.685 1.584zM208.225 336.606a7.709 7.709 0 0 1-4.73-1.617l-6.679-5.172a7.728 7.728 0 0 1 9.461-12.219l1.984 1.536 2.436-1.858a7.725 7.725 0 0 1 10.829 1.458 7.726 7.726 0 0 1-1.458 10.829l-7.157 5.459a7.717 7.717 0 0 1-4.686 1.584zM208.225 289.879c-1.67 0-3.339-.54-4.731-1.618l-6.679-5.172a7.727 7.727 0 0 1 9.462-12.218l1.983 1.536 2.436-1.858a7.727 7.727 0 0 1 9.371 12.287l-7.157 5.459a7.706 7.706 0 0 1-4.685 1.584z"/><circle style="fill:#93a3af" cx="392.493" cy="71.83" r="28.737"/><path style="fill:#455e6d" d="m401.691 79.557-.067-.001-.118-.001a7.726 7.726 0 0 1-7.66-7.792c.036-4.267 3.494-7.729 7.792-7.66l.118.001a7.728 7.728 0 0 1-.065 15.453z"/></svg>