<svg width="512" height="512" fill="none" xmlns="http://www.w3.org/2000/svg"><path d="M362.879 480.98c-2.87 4.45-4.54 7.02-4.54 7.02h-208l-4.54-7.02c-49.84-77.02-44.8-177.3 12.51-248.94.02-.03.03-.04.03-.04h192l.03.04c57.31 71.64 62.35 171.92 12.51 248.94z" fill="#C99841"/><path d="M334.339 360c0 51.28-10.94 97.19-28.18 128h-103.64c-17.24-30.81-28.18-76.72-28.18-128s10.94-97.19 28.18-128h103.64c17.24 30.81 28.18 76.72 28.18 128z" fill="#F9BC51"/><path d="M406.339 432a213.159 213.159 0 0 1-80-166.45V256h29.788c27.731 0 50.212 22.48 50.212 50.212V432zM102.339 432a213.159 213.159 0 0 0 80-166.45V256h-29.788c-27.731 0-50.212 22.48-50.212 50.212V432z" fill="#9C7633"/><path d="M290.482 288h-72.286c-47.907 0-88.316-35.673-94.258-83.21L118.339 160h272l-5.599 44.79c-5.942 47.537-46.352 83.21-94.258 83.21z" fill="#C99841"/><path d="M198.339 152h112l-56 112-56-112z" fill="#4F5355"/><path d="M182.339 216c39.764 0 72-32.235 72-72s-32.236-72-72-72c-39.765 0-72 32.235-72 72s32.235 72 72 72zM326.339 216c39.764 0 72-32.235 72-72s-32.236-72-72-72c-39.765 0-72 32.235-72 72s32.235 72 72 72z" fill="#91979C"/><path d="M182.339 184c22.091 0 40-17.909 40-40s-17.909-40-40-40c-22.092 0-40 17.909-40 40s17.908 40 40 40zM326.339 184c22.091 0 40-17.909 40-40s-17.909-40-40-40c-22.092 0-40 17.909-40 40s17.908 40 40 40z" fill="#55585B"/><path d="M230.34 480v8h-80v-8c0-22.09 17.91-40 40-40s40 17.91 40 40z" fill="#9C7633"/><path d="M182.34 472v16h-16v-16c0-4.42 3.58-8 8-8s8 3.58 8 8zM214.34 472v16h-16v-16c0-4.42 3.58-8 8-8s8 3.58 8 8z" fill="#3B3D3E"/><path d="M358.34 480v8h-80v-8c0-22.09 17.91-40 40-40s40 17.91 40 40z" fill="#9C7633"/><path d="M342.34 472v16h-16v-16c0-4.42 3.58-8 8-8s8 3.58 8 8zM310.34 472v16h-16v-16c0-4.42 3.58-8 8-8s8 3.58 8 8z" fill="#3B3D3E"/><path d="M182.339 160c8.836 0 16-7.163 16-16s-7.164-16-16-16c-8.837 0-16 7.163-16 16s7.163 16 16 16zM326.339 160c8.836 0 16-7.163 16-16s-7.164-16-16-16c-8.837 0-16 7.163-16 16s7.163 16 16 16z" fill="#5D2528"/><path d="M65.016 24.013 240.983 53.34a81.238 81.238 0 0 0 26.713 0l175.967-29.328c.835-.14 1.356.875.758 1.473l-85.349 85.349c-57.842 57.842-151.623 57.842-209.465 0l-85.35-85.35c-.597-.598-.076-1.611.759-1.472z" fill="#C99841"/></svg>