<svg xmlns="http://www.w3.org/2000/svg" width="500" height="500" viewBox="0 0 48 48" xml:space="preserve"><g fill="none" stroke="#5D4037" stroke-width="2" stroke-linecap="round" stroke-linejoin="round"><path d="m21.528 30.063 1 7.937M20.466 38h2s3 0 5 1"/></g><g fill="none" stroke="#795548" stroke-width="2" stroke-linecap="round" stroke-linejoin="round"><path d="m19.528 31 1 7.938M18.466 39h2s3 0 5 1"/></g><g fill="#FFC107"><path d="M16.495 22s7.035.035 10.035-2.965a5 5 0 0 0-7.07-7.07C15.96 15.465 16.495 22 16.495 22z"/><path d="M29.336 31.029C25.415 34.949 12.466 36 12.466 36s1.051-11.949 5.471-16.369a8.06 8.06 0 0 1 11.399 0 8.059 8.059 0 0 1 0 11.398z"/></g><path fill="#455A64" d="m27.829 14.043 3.166-3.543-4.346 1.61-1.403 2.808 2.679 1.303 4.07-1.721z"/><path fill="#795548" d="M22.124 12.68c.084.186.133.39.133.605 0 .814-.661 1.477-1.477 1.477-.216 0-.42-.049-.605-.133a1.477 1.477 0 0 0 2.821-.606 1.477 1.477 0 0 0-.872-1.343z"/><path fill="#FF1744" d="M39.582 5c-.642 0-1.685-.038-1.688.551v5.699s-.244-.146-.815-.08c-1.152.135-2.081 1.037-2.084 1.957-.005.928.926 1.495 2.074 1.339 1.148-.161 2.005-1.011 2.011-1.939V7.823c0-.41.32-.586.492-.586 3.66 0 3.367 2.053 3.367 2.053S43.733 5 39.582 5z"/><path fill="#90A4AE" d="M23.263 28.266c-1.977 1.977-6.243 4.07-11.757 5.245 1.646-6.354 3.124-9.925 5.1-11.901 1.977-1.977 5.069-2.088 6.907-.249 1.838 1.836 1.725 4.928-.25 6.905z"/><g fill="#607D8B"><path d="M12.466 36s.045-.491.146-1.285L4.995 37c0 5 6 4 6 4l3-5 .084-.168c-.999.118-1.613.168-1.613.168zM14.083 25.579c-.878 1.981-1.704 4.563-2.577 7.932 5.514-1.175 9.78-3.269 11.757-5.245a5.248 5.248 0 0 0 1.553-3.484c-4.59-.782-8.314-.04-10.733.797z"/></g><g fill="#37474F"><path d="M21.968 24.494c-.16.221-.326.438-.525.636-1.609 1.608-4.752 3.288-8.834 4.493-.203.65-.405 1.33-.61 2.063 4.869-1.211 8.63-3.115 10.444-4.931a5.299 5.299 0 0 0 1.283-2.119 24.053 24.053 0 0 0-1.758-.142zM13.259 27.674c2.705-.916 4.907-2.032 6.419-3.167a20.758 20.758 0 0 0-5.595 1.072c-.279.63-.553 1.333-.824 2.095z"/></g></svg>