<svg xmlns="http://www.w3.org/2000/svg" xml:space="preserve" width="191.999" height="191.999" style="shape-rendering:geometricPrecision;text-rendering:geometricPrecision;image-rendering:optimizeQuality;fill-rule:evenodd;clip-rule:evenodd" viewBox="0 0 2000 2000"><defs><style>.fil1{fill:#525263}.fil4{fill:#6b92d3}.fil3{fill:#73a9eb}.fil7{fill:#d9eeff}</style></defs><path style="fill:none" d="M0 0h2000v2000H0z"/><g id="Layer_x0020_1"><g id="_374888592"><path class="fil1" d="M945 1740c-9 0-18-5-21-14l-92-209c-5-12 1-25 13-30 11-6 25 0 30 12l91 208c5 12 0 26-12 31-3 1-6 2-9 2zM1187 1740c-9 0-18-5-22-14l-96-221c-5-12 0-26 12-31s25 0 31 12l96 221c5 12 0 26-12 31-3 1-6 2-9 2z"/><path d="M931 1535c-115 0-249-22-406-80S97 1149 155 976c2-6 7-12 13-14 7-3 14-2 20 1 1 1 110 59 241 47 7-1 14 2 19 7 96 99 237 139 369 103l93-25c66-17 122-60 157-120 34-61 44-130 26-197-21-77-100-123-178-102l-86 23c-9 2-18-1-24-8-5-7-7-17-3-25 59-125 115-244 305-297l-57-71c-6-7-7-16-3-25 4-8 12-13 21-13 254 3 445 135 525 361 3 9 1 18-6 25-6 6-16 8-24 5l-24-9c-44 2-79 39-79 84s35 81 79 83l59-21c7-3 14-2 21 2 6 4 10 11 10 18 11 235-94 464-275 596-92 68-230 131-423 131z" style="fill:#89b9f2"/><path class="fil3" d="M338 1008c28 4 59 5 91 2 7-1 14 2 19 7 96 99 237 139 369 103l93-25c66-17 122-60 157-120 34-61 44-130 26-197-21-77-100-123-178-102l-86 23c-9 2-18-1-24-8-5-7-7-17-3-25 8-16 16-33 24-49l69-19c57-15 118-7 170 23s90 79 105 137c24 87 11 179-34 257s-119 134-206 158l-92 24c-38 11-78 16-118 16-81 0-159-21-229-62-62-36-114-85-153-143z"/><path class="fil4" d="M1572 569c8 17 15 34 21 52 3 9 1 18-6 25-6 6-16 8-24 5l-24-9c-44 2-79 39-79 84s35 81 79 83l59-21c7-3 14-2 21 2 6 4 10 11 10 18 1 18 1 35 1 53l-67 25c-6 2-13 4-20 4-90 0-164-74-164-164 0-91 74-164 164-164 7 0 14 1 20 4l9 3zM720 1180c-74 0-146-20-212-58-98-56-169-148-198-257l-13-48c-3-12 4-25 17-28l589-158c50-14 101-7 146 19 44 26 76 67 89 116 44 163-53 331-216 374l-92 25c-37 10-74 15-110 15z"/><path d="m300 826-3-9c-3-12 4-25 17-28l10-3c80 35 441 181 697 31 11-7 26-3 32 8 7 11 3 26-8 32-97 57-203 76-304 76-197 0-391-83-441-107z" style="fill:#5676ab"/><path class="fil1" d="M1377 1740H756c-13 0-23-11-23-24 0-12 10-23 23-23h621c13 0 23 11 23 23 0 13-10 24-23 24z"/><path d="M1543 856c-72 0-130-58-130-130s58-131 130-131c3 0 6 1 8 2l287 107c9 3 15 12 15 22 0 9-6 18-15 22l-287 107c-2 1-5 1-8 1z" style="fill:#ffb65f"/><path class="fil7" d="M1267 680c-62 0-113-51-113-113 0-63 51-114 113-114s113 51 113 114c0 62-51 113-113 113zM1614 993c-175 37-497 153-912 515 48 11 93 18 136 22 18 2 36 4 53 4 14 1 27 1 40 1 53 0 101-4 146-13 16-3 31-6 46-10 97-24 173-65 231-108 133-97 225-246 260-411z"/><circle cx="1550" cy="663" r="20" style="fill:#ff8545"/><path class="fil1" d="M1267 631c-35 0-64-29-64-64 0-36 29-65 64-65s64 29 64 65c0 35-29 64-64 64z"/><path class="fil3" d="M760 1520c370-318 665-438 843-483 4-14 8-29 11-44-175 37-497 153-912 515 19 4 39 8 58 12z"/></g></g></svg>