<svg xmlns="http://www.w3.org/2000/svg" viewBox="0 0 507.434 507.434" style="enable-background:new 0 0 507.434 507.434" xml:space="preserve"><path style="fill:#415a6b" d="M273.946 402.133 41.413 439.467v39.466l232.533-36.266z"/><path style="fill:#f3705a" d="M217.413 412.8s-11.733 7.467-17.067 5.333c0 0-8.533 5.333-7.467-1.067 0 0 2.133-1.067 1.067-3.2l13.867-2.133 9.6 1.067z"/><path style="fill:#ffd15c" d="M192.88 417.067s2.133-1.067 1.067-3.2c0 0-5.333-1.067-7.467 4.267 0-.001 4.266-2.134 6.4-1.067zM243.013 434.133s2.133-3.2 4.267-3.2c0 0 4.267 5.333-1.067 10.667 0-1.067 0-6.4-3.2-7.467zM232.346 429.867s2.133-3.2 4.267-3.2c0 0 4.267 5.333-1.067 10.667 0-.001 0-6.401-3.2-7.467z"/><path style="fill:#f3705a" d="M214.213 412.8s2.133 2.133 5.333 2.133c0 0 2.133 5.333 6.4 6.4 0 0 6.4 12.8 8.533 9.6 0-2.133 2.133-4.267 3.2-4.267 0 0-6.4-10.667-9.6-13.867 0 0 9.6 10.667 11.733 14.933 0 0 0 5.333 4.267 6.4 0 0 2.133-3.2 5.333-2.133 0 0-13.867-24.533-33.067-29.867l-11.733-4.267v9.6c1.067 0 5.333 3.2 2.133 4.267l-2.133 2.133 9.601-1.065z"/><path style="fill:#ffd15c" d="M199.28 440.533s2.133-3.2 4.267-3.2c0 0 4.267 5.333-2.133 10.667-.001 0 1.066-5.333-2.134-7.467zM187.546 436.267s2.133-3.2 4.267-3.2c0 0 4.267 5.333-2.133 10.667 1.066-.001 2.133-5.334-2.134-7.467z"/><path style="fill:#f3705a" d="M170.48 419.2s4.267 1.067 4.267 2.133c0 0 2.133 5.333 6.4 6.4 0 0 5.333 12.8 8.533 9.6 0-2.133 2.133-4.267 3.2-3.2-1.067-3.2-3.2-7.467-6.4-10.667 0 0 2.133 2.133 4.267 5.333 2.133 3.2 3.2 6.4 5.333 9.6 0 1.067 1.067 3.2 4.267 3.2 0 0 2.133-3.2 5.333-2.133 0 0-12.8-25.6-32-30.933l-10.667-5.333v9.6c1.067 0 5.333 4.267 2.133 4.267l-3.2 2.133h8.534z"/><path style="fill:#ced6e0" d="M183.28 413.867c-1.067-2.133 0-2.133 0-3.2 0 0-4.267-6.4-14.933 8.533 2.133 0 6.4 3.2 6.4 4.267 3.199-5.334 5.333-7.467 8.533-9.6z"/><path style="fill:#344a5e" d="M269.68 202.667c-1.067 4.267-5.333 6.4-6.4 6.4-13.867 3.2-17.067-12.8-14.933-13.867-.001 0 20.266 5.333 21.333 7.467z"/><path style="fill:#415a6b" d="M247.28 195.2s3.2-1.067 8.533-2.133c8.533-2.133 17.067-1.067 24.533 3.2 0 0-3.2-29.867-38.4-26.667-9.6 9.6-6.4 17.067 5.334 25.6z"/><path style="fill:#e8eae9" d="M175.813 275.2C160.88 261.333 93.68 411.733 80.88 452.267 74.48 464 31.813 555.733 109.68 473.6l58.667-54.4s4.267-3.2 10.667-7.467c8.533-5.333 18.133-5.333 27.733-2.133 0 0 3.2-5.333 8.533-7.467-7.467-8.533-28.8-9.6 51.2-133.333l-26.667-52.267 7.467-21.333s-12.8-14.933-4.267-24.533c0 0-21.333-25.6-52.267 1.067-13.867 10.667-22.4 28.8-22.4 46.933 0 13.867-1.067 4.267 2.133 24.533l5.334 32z"/><path style="fill:#ced6e0" d="M176.88 391.467c-5.333 11.733-8.533 27.733-8.533 27.733 8.533-5.333 30.933-16 38.4-9.6 0 0 3.2-5.333 8.533-7.467-8.533-4.267 43.733-61.867 51.2-113.067 0 .001-40.534-11.733-89.6 102.401z"/><path style="fill:#66c6b9" d="M263.28 208c0 5.333 4.267 60.8 4.267 60.8 0 4.267 1.067 8.533 0 12.8-1.067 14.933-5.333 28.8-12.8 40.533-7.467 12.8-17.067 28.8-22.4 26.667-12.8-6.4-5.333-43.733-3.2-51.2-3.2 5.333-16 6.4-20.267 1.067-4.267-5.333-4.267-11.733-4.267-18.133-1.067 2.133-2.133 9.6-4.267 10.667-10.667 5.333-16-21.333-10.667-33.067l-18.133-5.333-1.067-9.6c-3.2-20.267-2.133-10.667-2.133-23.467 1.067-18.133 8.533-36.267 22.4-48 32-26.667 53.333-2.133 53.333-2.133-7.467 9.6 4.267 25.6 4.267 25.6S247.28 209.067 263.28 208z"/><path style="fill:#66c6b9" d="M100.08 385.067S62.747 438.4 86.213 421.334s93.867-99.2 104.533-121.6c6.4-13.867 6.4-30.933 0-45.867 22.4 46.933-27.733-20.267-40.533-4.267l-1.067 1.067c-9.6 11.733-18.133 25.6-23.467 40.533-11.733 26.667-36.267 86.4-22.4 64 .001 0-13.866 40.533-3.199 29.867z"/><path style="fill:#4abaa5" d="M191.813 253.867c-7.467-16-29.867-18.133-40.533-4.267l-1.067 1.067c-9.6 11.733-18.133 25.6-23.467 40.533-11.733 26.667-36.267 86.4-22.4 64v1.067c1.067-1.067 1.067-2.133 2.133-3.2 0 3.2-3.2 7.467 0 9.6s6.4-3.2 8.533-7.467c0 1.067 0 2.133 1.067 3.2 1.067 1.067 3.2 0 4.267-1.067s2.133-3.2 3.2-4.267c1.067-1.067 1.067-3.2 2.133-4.267-1.067 1.067 0 3.2 1.067 3.2 1.067 1.067 3.2 0 4.267-1.067 1.067-1.067 2.133-3.2 2.133-4.267 0-1.067 1.067-2.133 1.067-3.2 0 1.067 0 2.133 1.067 2.133 1.067 1.067 3.2 0 4.267-1.067 4.267-3.2 7.467-7.467 9.6-11.733-1.067 2.133-1.067 3.2-1.067 5.333s1.067 3.2 3.2 4.267c2.133 0 4.267-2.133 5.333-4.267 2.133-3.2 4.267-6.4 5.333-9.6 0 2.133-2.133 5.333-1.067 6.4 2.133 2.133 5.333-3.2 7.467-4.267 10.667-13.867 19.2-25.6 22.4-32 7.467-12.797 7.467-30.931 1.067-44.797z"/><ellipse transform="rotate(-120.491 224.948 193.96)" style="fill:#e8eae9" cx="224.948" cy="193.959" rx="8.533" ry="10.667"/><ellipse transform="rotate(-120.491 223.022 195.343)" style="fill:#ced6e0" cx="223.021" cy="195.342" rx="5.333" ry="6.4"/><circle style="fill:#344a5e" cx="221.68" cy="195.2" r="4.267"/><circle style="fill:#fff" cx="220.613" cy="193.067" r="1.067"/><path style="fill:#415a6b" d="M41.413 439.467v39.466l126.933-20.266V419.2z"/><path style="fill:#f3705a" d="M371.013 88.533s50.133-23.467 50.133-61.867C421.146 11.733 409.413 0 394.48 0c-10.667 0-19.2 6.4-23.467 14.933C366.746 6.4 357.146 0 347.546 0c-14.933 0-26.667 11.733-26.667 26.667-1.066 38.4 50.134 61.866 50.134 61.866zM457.413 73.6s13.867-19.2 6.4-33.067c-3.2-5.333-9.6-7.467-14.933-4.267-4.267 2.133-6.4 6.4-6.4 10.667-3.2-2.133-8.533-3.2-11.733-1.067-5.333 3.2-7.467 9.6-4.267 14.933 7.466 14.934 30.933 12.801 30.933 12.801zM333.68 195.2s13.867-19.2 6.4-33.067c-3.2-5.333-9.6-7.467-14.933-4.267-4.267 2.133-6.4 6.4-6.4 10.667-3.2-2.133-8.533-3.2-11.733-1.067-5.333 3.2-7.467 9.6-4.267 14.933 7.466 14.934 30.933 12.801 30.933 12.801zM391.28 167.467s39.467 1.067 52.267-23.467c4.267-9.6 1.067-21.333-8.533-25.6-6.4-3.2-14.933-2.133-20.267 2.133 0-7.467-4.267-13.867-10.667-17.067-9.6-4.267-21.333-1.067-25.6 8.533-12.8 24.534 12.8 55.468 12.8 55.468z"/></svg>