<svg xmlns="http://www.w3.org/2000/svg" xml:space="preserve" width="682.667" height="682.667" style="shape-rendering:geometricPrecision;text-rendering:geometricPrecision;image-rendering:optimizeQuality;fill-rule:evenodd;clip-rule:evenodd" viewBox="0 0 7111 7111"><defs><style>.fil0{fill:#ffa721}</style></defs><g id="Layer_x0020_1"><path class="fil0" d="M3824 5866c-66 0-121-54-121-121v-538c0-66 54-120 121-120s121 54 121 120v538c0 67-54 121-121 121zM4655 5866c-66 0-120-54-120-121v-437c0-66 54-120 120-120 67 0 121 54 121 120v437c0 67-54 121-121 121z"/><path d="M5534 6354H124c-67 0-121-54-121-121v-488c0-66 54-120 121-120h5368c67 0 121 54 121 120 0 30-11 57-29 78 41 142 71 365 71 410 0 67-54 121-121 121z" style="fill:#c06000"/><path d="M5905 6659c-38 0-77-5-116-13-218-48-366-214-376-422-16-324-123-1175-124-1184-8-66 39-127 105-135 31-4 61 5 85 22 83-154 286-426 314-466 38-56 113-70 168-33 11 8 285 194 562 456 388 366 585 690 585 964 0 9-1 18-3 27-5 20-49 194-199 283-39 22-94 44-165 47-24 93-79 175-161 234-99 72-224 101-344 81-81 89-200 139-331 139z" style="fill:#8240c5"/><g id="_617185528"><path d="M2590 2455c-346 0-621-62-820-129-376-128-570-305-578-313-49-45-52-121-7-170s351-670 400-625c3 3 168 104 498 214 307 101 477 185 1168 7 65-17 249 692 265 757 17 64-22 130-86 147-314 81-595 112-840 112z" style="fill:#27d389"/><path d="M124 2555h-6c-24-1-46-10-64-23l-2-1-1-1-1-1h-1c-3-2-5-5-8-7l-1-1-1-1-1-1-1-1-1-1-1-1-2-2c-15-18-25-39-29-63v-7l-1-1v-11C4 1435 816 625 1812 625h1643c66 0 120 54 120 121 0 55-244 804-364 1054 56 33 77 105 45 162-32 59-105 80-164 48-1028-562-2866 504-2906 528-10 6-21 10-33 13h-1v1h-3l-1 1h-6v1h-3c-4 0-8 1-12 1h-3z" style="fill:#ff9e5c"/><path d="M124 2555h-6c-24-1-46-10-64-23l-2-1-1-1-1-1h-1c-3-2-5-5-8-7l-1-1-1-1-1-1-1-1-1-1-1-1-2-2c-15-18-25-39-29-63v-7l-1-1v-11c1-539 239-1024 615-1355 249 201 531 652 629 984-583 199-1041 465-1061 477-10 6-21 10-33 13h-1v1h-3l-1 1h-6v1h-3c-4 0-8 1-12 1h-3z" style="fill:#ff714b"/></g><path d="M4442 5442c-1017 0-1844-827-1844-1844 0-534 224-1029 620-1379-178-193-277-446-277-712 0-581 473-1055 1055-1055 581 0 1054 474 1054 1055 0 158-34 309-101 450-11 68-57 390 24 817 123 640 459 1199 999 1663 45 39 55 106 23 157-342 531-922 848-1553 848z" style="fill:#8f46da"/><path d="m5014 1782-1 3v1l-1 2v2l-1 3-1 3-1 3-1 3v3l-1 3-1 2-1 3v2l-1 1-1 3-1 3v2l-1 3v1l-1 2-1 3-1 3-1 3-1 2v2l-1 1-1 3-1 2v1l-2 5v2l-2 6-1 1-2 5v2l-2 4v2l-1 1-1 2-1 3v1l-2 6h-1v1l-1 3-1 3-1 1-2 6-1 1-1 5h-1v1l-2 5-1 1v2l-2 5h-1v1l-2 5v1h-1l-2 6-1 1-2 6-3 5v2l-1 1-3 5c-11 68-57 390 24 817 123 640 459 1199 999 1663 45 39 55 106 23 157l-2 2c-18 26-45 45-79 51-70 13-143 21-214 25-39 2-78 4-116 4-973 0-1761-723-1817-1691-4-67 47-124 113-128 35-2 597-553 1135-1078l-1 3z" style="fill:#5f62d9"/><path d="M2713 4240c-74-200-115-416-115-642 0-534 224-1029 620-1379-178-193-277-446-277-712 0-581 473-1055 1055-1055 581 0 1054 474 1054 1055 0 158-34 309-101 450 0 3 0 5-1 8-532 384-897 910-1011 1228-141 391-510 851-1224 1047z" style="fill:#d2c2e2"/><circle cx="3996" cy="1507" r="451" style="fill:#ac9eb8"/><circle cx="3996" cy="1507" r="212" style="fill:#1a1a1a"/><path d="M4195 1578c-23 66-78 116-145 134-29-18-49-50-49-87 0-56 46-102 103-102 40 0 74 22 91 55z" style="fill:#fff"/></g></svg>